<?xml version="1.0" encoding="UTF-8" standalone="no"?>
<svg
   xmlns:osb="http://www.openswatchbook.org/uri/2009/osb"
   xmlns:dc="http://purl.org/dc/elements/1.1/"
   xmlns:cc="http://creativecommons.org/ns#"
   xmlns:rdf="http://www.w3.org/1999/02/22-rdf-syntax-ns#"
   xmlns:svg="http://www.w3.org/2000/svg"
   xmlns="http://www.w3.org/2000/svg"
   id="svg8"
   version="1.1"
   viewBox="0 0 67.733337 67.73333"
   height="67.73333mm"
   width="67.733337mm">
  <defs
     id="defs2">
    <linearGradient
       osb:paint="solid"
       id="linearGradient2596">
      <stop
         id="stop2594"
         offset="0"
         style="stop-color:#fff205;stop-opacity:1;" />
    </linearGradient>
    <linearGradient
       osb:paint="solid"
       id="linearGradient2476">
      <stop
         id="stop2474"
         offset="0"
         style="stop-color:#000000;stop-opacity:1;" />
    </linearGradient>
  </defs>
  <metadata
     id="metadata5">
    <rdf:RDF>
      <cc:Work
         rdf:about="">
        <dc:format>image/svg+xml</dc:format>
        <dc:type
           rdf:resource="http://purl.org/dc/dcmitype/StillImage" />
        <dc:title></dc:title>
      </cc:Work>
    </rdf:RDF>
  </metadata>
  <g
     transform="translate(-76.792954,-103.37328)"
     id="layer1">
    <path
       id="path4520"
       d="m 110.65962,104.9011 a 32.338847,32.338847 0 0 0 -32.338846,32.33884 32.338847,32.338847 0 0 0 32.338846,32.33885 32.338847,32.338847 0 0 0 32.33885,-32.33885 32.338847,32.338847 0 0 0 -32.33885,-32.33884 z"
       style="opacity:1;fill:#fff205;fill-opacity:1;stroke:#ffffbe;stroke-width:3.05563903;stroke-linecap:butt;stroke-linejoin:round;stroke-miterlimit:4;stroke-dasharray:none;stroke-dashoffset:0;stroke-opacity:1;paint-order:normal" />
    <flowRoot
       transform="matrix(0.33951546,0,0,0.33951546,76.128357,90.327739)"
       style="font-style:normal;font-variant:normal;font-weight:bold;font-stretch:normal;font-size:96px;line-height:1.25;font-family:Nunito;-inkscape-font-specification:'Nunito Bold';letter-spacing:0px;word-spacing:0px;fill:#000000;fill-opacity:1;stroke:none"
       id="flowRoot4544"
       xml:space="preserve"><flowRegion
         id="flowRegion4546"><rect
           y="245.70728"
           x="68.690376"
           height="325.26913"
           width="694.98492"
           id="rect4548" /></flowRegion><flowPara
         id="flowPara4550" /></flowRoot>    <flowRoot
       transform="matrix(0.33951546,0,0,0.33951546,76.128357,90.327739)"
       style="font-style:normal;font-variant:normal;font-weight:bold;font-stretch:normal;font-size:96px;line-height:1.25;font-family:'True Lies';-inkscape-font-specification:'True Lies Bold';letter-spacing:0px;word-spacing:0px;fill:#000000;fill-opacity:1;stroke:none"
       id="flowRoot818"
       xml:space="preserve"><flowRegion
         style="font-style:normal;font-variant:normal;font-weight:bold;font-stretch:normal;font-family:'True Lies';-inkscape-font-specification:'True Lies Bold'"
         id="flowRegion820"><rect
           style="font-style:normal;font-variant:normal;font-weight:bold;font-stretch:normal;font-family:'True Lies';-inkscape-font-specification:'True Lies Bold'"
           y="261.86972"
           x="111.11678"
           height="311.12698"
           width="509.11688"
           id="rect822" /></flowRegion><flowPara
         id="flowPara824" /></flowRoot>    <flowRoot
       transform="matrix(0.08983013,0,0,0.08983013,95.762657,109.70538)"
       style="font-style:normal;font-variant:normal;font-weight:bold;font-stretch:normal;font-size:96px;line-height:1.25;font-family:'Font Awesome 5 Brands';-inkscape-font-specification:'Font Awesome 5 Brands Bold';letter-spacing:0px;word-spacing:0px;fill:#181f2a;fill-opacity:1;stroke:none"
       id="flowRoot870"
       xml:space="preserve"><flowRegion
         style="font-style:normal;font-variant:normal;font-weight:bold;font-stretch:normal;font-family:'Font Awesome 5 Brands';-inkscape-font-specification:'Font Awesome 5 Brands Bold';fill:#181f2a;fill-opacity:1"
         id="flowRegion872"><rect
           style="font-style:normal;font-variant:normal;font-weight:bold;font-stretch:normal;font-family:'Font Awesome 5 Brands';-inkscape-font-specification:'Font Awesome 5 Brands Bold';fill:#181f2a;fill-opacity:1"
           y="225.37683"
           x="278.57144"
           height="98.571457"
           width="405.71432"
           id="rect874" /></flowRegion><flowPara
         style="font-style:normal;font-variant:normal;font-weight:bold;font-stretch:normal;font-family:'Font Awesome 5 Pro';-inkscape-font-specification:'Font Awesome 5 Pro Bold';fill:#181f2a;fill-opacity:1"
         id="flowPara876">chevron-double-dowarrow-circle-downarrow-circle-down</flowPara></flowRoot>    <text
       transform="scale(1.6496297,0.60619666)"
       id="text834"
       y="227.59515"
       x="70.961563"
       style="font-style:normal;font-variant:normal;font-weight:bold;font-stretch:normal;font-size:11.38508892px;line-height:1.25;font-family:'True Lies';-inkscape-font-specification:'True Lies Bold';letter-spacing:0px;word-spacing:0px;fill:#181f2a;fill-opacity:1;stroke:none;stroke-width:0.11859468"
       xml:space="preserve"><tspan
         style="font-style:normal;font-variant:normal;font-weight:bold;font-stretch:normal;font-family:'Font Awesome 5 Pro';-inkscape-font-specification:'Font Awesome 5 Pro Bold';fill:#181f2a;fill-opacity:1;stroke-width:0.11859468"
         y="237.87199"
         x="70.961563"
         id="tspan832" /></text>
    <path
       id="path994"
       d="m 123.1725,122.3899 c -0.92183,0 -1.99876,0.13218 -3.22774,0.39406 -0.0749,-0.009 -0.14156,-0.0162 -0.22405,-0.0261 l -0.22773,0.12264 v -0.12264 c -5.43189,-0.0701 -8.51587,-0.1051 -9.25181,-0.1051 -0.0934,0 -0.47317,-0.0409 -1.13901,-0.12263 0,0.0818 -0.0817,0.12263 -0.24528,0.12263 l -0.22774,-0.12263 -0.80601,0.12263 c -0.1869,0 -0.49644,-0.0409 -0.92865,-0.12263 -0.1285,0.0818 -0.28042,0.12263 -0.45565,0.12263 -0.17522,0 -0.32697,-0.0409 -0.45546,-0.12263 l -0.70092,0.12263 h -0.10527 c -0.28036,0 -0.63076,-0.0409 -1.0513,-0.12263 -0.12849,0.0818 -0.32111,0.12263 -0.5781,0.12263 -0.17523,0 -0.32715,-0.0409 -0.45565,-0.12263 -0.1869,0.0584 -0.7651,0.13428 -1.73466,0.22773 l -0.22791,-0.1051 -3.819714,0.22774 c -0.128497,-0.0818 -0.280421,-0.12264 -0.455642,-0.12264 -0.186904,0 -0.49644,0.0409 -0.928654,0.12264 l -1.717125,0.57828 0.105094,0.22773 c 0.08177,0 0.198514,-0.035 0.350373,-0.10509 l 0.578281,0.10509 -0.122639,0.57828 c -0.56071,0.21027 -0.905427,0.55481 -1.033924,1.03375 -0.841066,0.30372 -1.267345,0.53738 -1.279026,0.70092 v 0.1051 h 0.122639 l 0.227733,-0.1051 0.227909,0.35055 v 0.45547 c 0,0.14017 -1.612178,3.06637 -4.836264,8.77861 -2.838599,5.52534 -4.339546,8.56259 -4.503086,9.11162 -0.829385,0.16354 -1.331714,0.47308 -1.506936,0.92865 0,0.15186 0.233662,0.26861 0.700921,0.35038 v 0.22791 l -0.245279,0.35037 v 0.45564 c 0,0.23363 0.578203,0.46729 1.734669,0.70092 0,-0.0818 0.04087,-0.12264 0.122639,-0.12264 0,0.28036 -0.116918,0.81769 -0.350548,1.61203 h 0.12264 c 0.537348,-0.65416 0.806015,-1.11562 0.806015,-1.38429 h 0.105269 c 0.116815,0 0.233558,0.15761 0.350372,0.47301 -0.151858,0.0467 -0.765067,1.23831 -1.839762,3.57461 l 0.105094,0.22773 h 0.122639 c 1.308325,-2.79188 2.114326,-4.328 2.418045,-4.60836 1.425139,0 3.889875,-0.0409 7.394317,-0.12264 l 0.227909,-0.12264 c 0,0.0818 0.04087,0.12264 0.12264,0.12264 h 0.227733 l 0.227909,-0.12264 c 0,0.0818 0.04087,0.12264 0.122639,0.12264 h 2.645778 c 0.700889,0 1.051294,-0.19279 1.051294,-0.57828 0,-0.10513 0.420591,-0.18101 1.261657,-0.22773 0.08177,0 0.198511,0.035 0.350371,0.10509 0,-0.061 0.33833,-0.0937 0.9755,-0.10158 -0.60908,0.47844 -1.1965,0.94227 -1.746424,1.38079 0,0.14017 0.07019,0.21018 0.210365,0.21018 1.004609,-0.8177 1.681959,-1.22656 2.032409,-1.22656 h 0.10527 v 0.31545 c -0.0117,0.0935 -0.7594,0.73598 -2.24295,1.92749 0.01168,0.11682 0.31553,0.32116 0.91129,0.6132 0.58407,-0.22195 1.16227,-0.52562 1.73466,-0.91111 l 0.21019,0.10509 c 1.62373,-0.95788 3.55699,-2.35381 5.79984,-4.1878 -0.19859,0 -0.50812,0.16951 -0.92866,0.50828 v -0.19282 l 1.73467,-1.33166 v 0.10509 l -0.29774,0.40301 v 0.10509 c 0.82939,-0.53735 2.45881,-1.96242 4.88855,-4.27535 2.30125,-2.03258 3.52198,-3.04896 3.66216,-3.04896 1.84567,-1.577 2.89706,-2.86774 3.15405,-3.87235 v -0.71846 l -0.19281,-0.71829 c -0.74762,-0.39717 -1.1213,-0.66584 -1.1213,-0.80602 0.0701,0 0.16924,-0.0352 0.29774,-0.10527 l -0.1051,-0.21019 c -1.01629,0 -1.5243,-0.16934 -1.5243,-0.5081 h -0.40319 c -0.15186,0 -0.28619,0.035 -0.403,0.1051 -0.31541,-0.1285 -0.75927,-0.19282 -1.33167,-0.19282 h -0.71829 c -0.91115,0 -2.3714,0.19865 -4.38062,0.59582 -0.3154,-0.15185 -0.48474,-0.32119 -0.5081,-0.5081 v -0.0877 c 0.36212,-0.39717 1.61786,-1.10971 3.76725,-2.13768 2.90869,-1.33169 4.40395,-2.04422 4.48572,-2.13768 v -0.10509 c -0.92284,0.19859 -1.46604,0.36792 -1.62958,0.5081 h -0.29791 v -0.21019 c 0.21027,0 1.50101,-0.50819 3.87235,-1.52448 l -0.1051,-0.21036 c -0.0177,0 -0.0567,0.004 -0.0853,0.007 0.16096,-0.0731 0.32927,-0.13405 0.50582,-0.18177 -0.14704,-0.16805 -0.22729,-0.30758 -0.24212,-0.41897 1.41375,-0.53636 2.40998,-0.88354 2.97562,-1.03551 v -0.19264 z m -29.437262,1.06884 v 0.22773 h 0.350372 v -0.22773 z m 7.849962,0 c 0,0.0818 0.0759,0.12264 0.22773,0.12264 v 0.22773 h -0.22773 c -0.17522,0 -0.32715,-0.0409 -0.45564,-0.12264 -0.14018,0.0818 -0.29193,0.12264 -0.45547,0.12264 h -0.24528 l -0.578281,-0.12264 v -0.10509 c 0.689211,0 1.267411,-0.0409 1.734671,-0.12264 z m 0.57828,0 h 0.12264 v 0.22773 h -0.35055 c 0,-0.12849 0.076,-0.20437 0.22791,-0.22773 z m 0.35037,0 h 1.03393 v 0.12264 c -0.26868,0 -0.61339,0.035 -1.03393,0.10509 h -0.12264 z m -6.237928,0.22773 h 0.122639 l 0.227909,0.12264 c 0,0.15186 -0.07605,0.22791 -0.227909,0.22791 h -0.350372 v -0.12264 c 0,-0.12849 0.07587,-0.20454 0.227733,-0.22791 z m 7.972598,1.27921 h 0.80602 v 0.10509 h -0.80602 z m -1.9624,0.10509 h 0.45547 v 0.12264 h -0.45547 z m 10.25344,0.46775 c -0.0321,0.0173 -0.0604,0.0332 -0.0905,0.0498 v -0.0444 c 0.0312,0 0.0608,-0.003 0.0905,-0.005 z m -3.68268,0.005 0.70092,0.10509 1.61203,-0.10509 0.80601,0.10509 v 0.12264 c -0.39717,0 -0.74171,0.035 -1.03375,0.10509 0,-0.0935 -0.15192,-0.16932 -0.45564,-0.22773 l -1.27902,0.22773 c -0.23363,-0.16354 -0.35055,-0.27442 -0.35055,-0.33282 z m -5.99248,0.10509 h 0.45547 c 0.15186,0 0.22791,0.0759 0.22791,0.22773 h -0.68338 z m 3.22406,0 h 0.47301 v 0.12264 h -0.47301 z m -4.85363,0.12264 h 0.92865 v 0.10509 h -0.92865 z m 10.49363,0.29826 c -3.57275,1.6898 -5.35963,3.65204 -5.35963,5.88704 0.61912,0.74761 1.16232,1.12147 1.62957,1.12147 0.15186,0.39717 0.3212,0.60152 0.50811,0.61319 0.28035,0 0.85855,-0.07 1.73466,-0.21018 v 0.10509 c -0.32708,0.33876 -0.63075,0.5081 -0.9111,0.5081 v 0.21037 h 0.10509 c 2.51152,-0.95788 4.54411,-1.43694 6.09775,-1.43694 0.47894,0.19859 0.71846,0.36811 0.71846,0.50828 v 0.21019 l -0.21036,0.91111 c -1.577,1.51859 -3.6446,3.3527 -6.20284,5.5021 -3.14902,2.37728 -5.88141,4.47341 -8.20192,6.29161 0.0791,-0.29129 0.21922,-0.43932 0.42214,-0.43932 v -0.22774 c -0.23363,0 -0.50816,0.0409 -0.82356,0.12264 -0.54903,-0.0818 -0.89375,-0.15764 -1.03393,-0.22773 -0.15186,0.0701 -0.2686,0.10509 -0.350371,0.10509 l -1.839938,-0.10509 -0.227733,0.10509 c 0,-0.0701 -0.04087,-0.10509 -0.12264,-0.10509 h -0.105094 l -0.245278,0.10509 c 0,-0.0701 -0.18693,-0.14596 -0.560737,-0.22773 l -0.245278,0.12264 h -0.455642 v -0.12264 c 2.38302,-0.0584 3.574607,-0.29207 3.574607,-0.70092 0.151859,0 0.227733,0.0817 0.227733,0.24528 l 0.700921,-0.12264 v -0.22773 l -5.659649,-0.35055 c 0,0.0818 -0.04105,0.12264 -0.122814,0.12264 l -0.683377,-0.12264 c -0.175221,0 -0.32697,0.0409 -0.455466,0.12264 l -0.245279,-0.12264 c -0.712569,0 -1.249903,0.0409 -1.612029,0.12264 -0.478941,-0.0818 -1.016275,-0.12264 -1.61203,-0.12264 h -1.279202 l -0.578282,-0.12264 c 0,-0.39717 0.887914,-2.27784 2.663498,-5.6421 0.525668,-1.14479 0.986952,-1.83991 1.384122,-2.08522 0.08177,0 0.198688,0.0409 0.350548,0.12264 l 0.928654,-0.24528 0.455466,0.12264 c 0.78266,0 1.705579,-0.15175 2.768594,-0.45547 0.256992,0 0.449785,0.035 0.578281,0.10509 l 0.70092,-0.10509 h 2.067495 c 0.87611,0 1.8399,-0.11692 2.89123,-0.35055 v -0.22773 c -0.38548,0 -0.57828,-0.0817 -0.57828,-0.24528 0,-0.30372 -0.26866,-0.45564 -0.80601,-0.45564 v -0.22773 l 0.57828,-0.12264 h 1.48939 v -0.22791 c -0.0584,0 -0.36208,-0.035 -0.91111,-0.1051 v -0.24528 h 0.57811 c 0.15186,0 0.22791,-0.0759 0.22791,-0.22773 -0.77098,-0.0467 -1.15657,-0.12277 -1.15657,-0.22791 -5.385158,-0.21026 -8.077691,-0.40288 -8.077691,-0.5781 -0.08177,0 -0.198689,0.0409 -0.350549,0.12264 l -0.122638,-0.24528 c 1.682132,-3.07223 2.64592,-4.60836 2.891232,-4.60836 0,0.1285 -0.07587,0.32111 -0.227734,0.57811 v 0.10527 h 0.227734 c 0.677526,-1.37842 1.214859,-2.06768 1.612029,-2.06768 1.693817,0 4.544137,-0.11691 8.550877,-0.35054 0.15186,0.0818 0.26861,0.12281 0.35038,0.12281 1.13447,-0.11765 2.59174,-0.21073 4.36097,-0.28002 z m 4.62801,0.0872 v 0.19282 c -2.5232,1.22656 -3.84912,1.83977 -3.97762,1.83977 h -0.19264 c 2.30125,-1.35506 3.69131,-2.03259 4.17026,-2.03259 z m -20.080548,3.18897 c -0.116815,0 -0.233558,0.15193 -0.350372,0.45564 v 0.12264 h 0.245277 c 0,-0.0818 0.03501,-0.19851 0.105095,-0.35037 z m 12.440768,1.19166 h 0.10527 c 0.1285,0 0.19265,0.0641 0.19265,0.19264 v 0.10509 h -0.29792 z m -0.9111,0.80601 h 0.19281 c 0,0.1869 0.10502,0.42625 0.31529,0.71829 v 0.10527 c -0.3154,-0.14018 -0.48474,-0.28038 -0.5081,-0.42055 z m 0.9111,0 h 0.21037 c 0.15186,0 0.55486,0.20434 1.20902,0.6132 v 0.21036 h -0.0877 c -0.5023,0 -0.94617,-0.23953 -1.33166,-0.71847 z m 9.47954,0.31528 h 0.0877 c 0.74761,0 1.1213,0.26867 1.1213,0.80602 v 0.10527 c -0.71257,-0.47894 -1.15058,-0.71847 -1.31412,-0.71847 z m -0.42055,0.59583 h 0.10527 c 0.72425,0.21027 1.16812,0.48479 1.33166,0.82356 v 0.21019 h -0.10527 c -0.73594,-0.61912 -1.17981,-0.92866 -1.33166,-0.92866 z m -0.29792,1.12147 h 0.10527 c 0.1285,0 0.19265,0.07 0.19265,0.21019 v 0.21036 h -0.1051 c -0.10513,0 -0.16945,-0.0702 -0.19282,-0.21036 z m 1.01638,0.1051 c 0.14018,0 0.21019,0.07 0.21019,0.21018 v 0.19282 c -0.11682,0 -0.18682,-0.0643 -0.21019,-0.19282 z m -31.907942,8.34051 v 0.1051 c 0,0.15186 -0.08174,0.22791 -0.245278,0.22791 v -0.10527 c 0,-0.1285 0.08174,-0.20438 0.245278,-0.22774 z m -0.473187,0.45565 h 0.227909 c 0,0.22194 -0.186929,0.75928 -0.560737,1.61203 h -0.350547 c 0,-0.15186 0.227798,-0.6892 0.683375,-1.61203 z m 20.763919,1.08638 h 0.1051 c -0.80603,0.73593 -2.19609,1.78715 -4.17026,3.15388 h -0.50811 v -0.21019 h 0.1051 c 2.897,-1.96249 4.3864,-2.94369 4.46817,-2.94369 z m 0.92866,0.40301 h 0.19281 c -4.03011,3.32922 -6.43656,5.09314 -7.21922,5.29173 -0.11681,0 -0.18682,-0.0643 -0.21018,-0.19282 0.17522,0 0.5489,-0.23953 1.12129,-0.71847 2.45311,-1.84567 4.49157,-3.30575 6.1153,-4.38044 z m -0.6132,1.52448 h 0.10509 c -0.035,0.14017 -0.20438,0.28019 -0.5081,0.42037 h -0.10527 c 0.0234,-0.14018 0.19288,-0.2802 0.50828,-0.42037 z m -18.766428,0.91111 h 1.506935 c 0,0.12849 -0.192792,0.24524 -0.578281,0.35037 l -0.700745,-0.12264 h -0.227909 z m 1.612029,0.12263 h 0.578282 v 0.1051 h -0.578282 z"
       style="font-style:normal;font-variant:normal;font-weight:bold;font-stretch:normal;font-size:medium;line-height:1.25;font-family:'True Lies';-inkscape-font-specification:'True Lies Bold';letter-spacing:0px;word-spacing:0px;fill:#181f2a;fill-opacity:1;stroke:none;stroke-width:0.37380713" />
    <path
       id="path987"
       d="m 129.09673,122.3899 c -1.13945,0.19428 -2.65028,0.93066 -4.53274,2.20926 -1.15257,0.65111 -2.20275,1.6514 -3.15054,3.00089 -0.39908,0.59861 -0.59864,1.17226 -0.59864,1.72098 0,0.25992 0.11283,0.49757 0.33862,0.71285 0,0.44896 0.38731,0.67338 1.16183,0.67338 h 0.0354 l 0.18896,-0.0354 c 0,0.0499 0.12481,0.0749 0.37423,0.0749 0.49621,0 1.09614,-0.13787 1.79976,-0.41354 h 0.0747 v 0.0393 c -0.27567,0.17328 -0.5015,0.26002 -0.67741,0.26002 v 0.0747 h 0.14966 c 0.12339,0 0.5606,-0.2112 1.31148,-0.6339 1.05019,-1.04493 1.57519,-1.90754 1.57519,-2.58753 -0.0735,-0.46733 -0.11018,-0.71661 -0.11018,-0.74812 -0.29931,-0.60122 -0.82448,-0.90198 -1.57536,-0.90198 -0.2363,0 -0.43568,0.0381 -0.59846,0.11422 -0.23104,0 -0.71814,0.27448 -1.46115,0.82321 v 0.0393 h 0.11036 c 0.37282,-0.32556 0.74815,-0.48828 1.12621,-0.48828 h 0.0354 v 0.0393 c -0.11815,0 -0.45539,0.23623 -1.01199,0.70882 l 0.0393,0.0749 c 0.24679,-0.22316 0.38324,-0.33475 0.4095,-0.33475 h 0.11422 v 0.0747 c 0.40694,-0.17591 0.68143,-0.2637 0.8232,-0.2637 h 0.4488 c 0.22317,0 0.449,0.21261 0.67741,0.63793 v 0.0747 c 0,0.69837 -0.42522,1.31011 -1.27586,1.8352 -0.7929,0.4017 -1.5543,0.60267 -2.28418,0.60267 -0.0998,0 -0.14966,-0.025 -0.14966,-0.0749 -0.35181,0 -0.52775,-0.35047 -0.52775,-1.05147 0,-0.46471 0.53822,-1.20109 1.61466,-2.20926 0.5566,-0.45946 1.18015,-0.90971 1.87064,-1.35079 h -0.18509 l -0.18896,0.14966 h -0.0354 c 0.33081,-0.27305 0.94254,-0.63551 1.8352,-1.08708 l 1.04743,-0.48442 c 0.86641,-0.35181 1.39158,-0.52758 1.57536,-0.52758 0.0394,-0.12339 0.0775,-0.1851 0.11422,-0.1851 h 0.1851 v -0.0395 l -0.0354,-0.0747 c -0.31768,0.042 -0.71804,0.14179 -1.20113,0.29931 0,-0.0735 -0.0368,-0.11035 -0.11035,-0.11035 v -0.0393 c 0.84802,-0.22841 1.272,-0.38989 1.272,-0.48441 v -0.0749 c -0.70624,0.17328 -1.26809,0.33477 -1.68554,0.48442 v -0.0747 c 0.59073,-0.22317 0.96482,-0.34798 1.12235,-0.37424 z m -0.67338,0.74829 h 0.0354 v 0.0393 l -0.93725,0.37406 h -0.0354 c 0.32819,-0.19166 0.64058,-0.32934 0.93725,-0.41336 z m 3.39864,1.65011 c -0.13915,0.22316 -0.21796,0.33475 -0.23633,0.33475 -0.46209,0.8139 -0.69832,1.26679 -0.70882,1.35868 0,0.0656 -0.15232,0.0984 -0.45687,0.0984 h -0.17721 c -0.38069,0 -0.90569,0.007 -1.57518,0.0197 l -0.0196,0.0393 v 0.0198 h 0.0196 l 0.0393,-0.0198 v 0.0198 c 0.0446,0 0.0774,-0.007 0.0984,-0.0198 l 0.11825,0.0198 h 0.25598 c 0.0263,0 0.0393,0.013 0.0393,0.0393 h -0.13772 c -0.19691,0 -0.35452,0.0132 -0.47266,0.0395 v 0.0393 c 0.1549,0 0.3125,-0.0131 0.47266,-0.0393 0.0525,0.0131 0.10487,0.0196 0.15737,0.0196 0.20742,0 0.34528,-0.0132 0.41354,-0.0395 0.0236,0.0131 0.0499,0.0198 0.0788,0.0198 h 0.0395 l 0.0393,-0.0198 v 0.0198 c 0.0158,0 0.0355,-0.007 0.0591,-0.0198 0.0709,0.0131 0.1102,0.0198 0.11808,0.0198 0.0341,0 0.0867,-0.007 0.15755,-0.0198 l 0.0395,0.0198 0.11808,-0.0198 h 0.39388 v 0.0395 h -0.45301 l -0.0393,0.0197 v -0.0197 l -0.0984,0.0197 h -0.0591 c -0.0525,0 -0.12479,-0.007 -0.21668,-0.0197 -0.0289,0.0236 -0.24537,0.0432 -0.64969,0.059 l -0.0395,-0.0197 c -0.0761,0.0131 -0.29263,0.0263 -0.64969,0.0395 -0.042,0.0394 -0.0748,0.059 -0.0984,0.059 v 0.0198 c 0,0.0263 0.013,0.0393 0.0393,0.0393 h 0.39389 c 0.0263,0 0.0393,0.0132 0.0393,0.0395 -0.0945,0.0131 -0.14706,0.0196 -0.15756,0.0196 v 0.0393 h 0.0984 c 0.16803,0 0.35191,-0.007 0.55144,-0.0197 l 0.0788,0.0197 0.0984,-0.0197 c 0.0998,0 0.42133,0.007 0.9648,0.0197 l 0.0395,0.0198 c -0.2888,0.61961 -0.51852,1.08027 -0.68917,1.38219 v 0.0395 l 0.0589,-0.0395 h 0.0198 c -0.19691,0.46996 -0.29546,0.72594 -0.29546,0.76795 h 0.0196 c 0.042,0 0.0815,-0.0721 0.11826,-0.21651 h 0.059 c 0,0.16541 -0.0591,0.33606 -0.17721,0.51196 v 0.0196 h 0.0198 l 0.0393,-0.0196 c 0.12602,-0.24679 0.21135,-0.39117 0.25598,-0.43318 h 0.0197 c -0.0341,0.11552 -0.0867,0.22694 -0.15755,0.33458 l 0.0395,0.0198 c 0.0105,0 0.0498,-0.0525 0.11808,-0.15756 l 0.61039,-1.20113 c 0.30718,-0.69837 0.48576,-1.0476 0.53564,-1.0476 h 1.37834 c 0.11027,0 0.27439,0.007 0.49231,0.0197 v -0.0393 h -0.0393 v -0.0196 h 0.0788 c 0.16277,0 0.32673,0.0196 0.49213,0.059 v -0.0393 c -0.1444,-0.0446 -0.2165,-0.0841 -0.2165,-0.11826 v -0.0984 c 0,-0.021 0.013,-0.034 0.0393,-0.0393 0,-0.0604 -0.25598,-0.0999 -0.76794,-0.11825 -0.8139,-0.0446 -1.22078,-0.0839 -1.22078,-0.11808 v -0.0197 l 0.55126,-1.14217 v -0.0197 l -0.059,0.0395 0.1772,-0.41353 c -0.003,-0.0184 -0.0354,-0.0446 -0.0984,-0.0788 h -0.0198 c -0.10764,0.13128 -0.1667,0.19686 -0.1772,0.19686 0,-0.0971 0.0395,-0.16925 0.11825,-0.21651 v -0.0395 l -0.0198,-0.0393 z m -1.97293,3.70584 c -0.021,0.005 -0.0868,0.11684 -0.19703,0.33476 v 0.0393 c 0.13127,-0.17066 0.19703,-0.28877 0.19703,-0.35441 z m 7.21869,-3.70584 c -0.13915,0.22316 -0.21795,0.33475 -0.23633,0.33475 -0.46208,0.8139 -0.69831,1.26679 -0.70882,1.35868 0,0.0656 -0.15231,0.0984 -0.45687,0.0984 h -0.1772 c -0.38069,0 -0.90587,0.007 -1.57536,0.0197 l -0.0197,0.0393 v 0.0198 h 0.0197 l 0.0395,-0.0198 v 0.0198 c 0.0446,0 0.0774,-0.007 0.0984,-0.0198 l 0.11808,0.0198 h 0.25598 c 0.0263,0 0.0395,0.013 0.0395,0.0393 h -0.13791 c -0.19691,0 -0.35433,0.0132 -0.47248,0.0395 v 0.0393 c 0.1549,0 0.31233,-0.0131 0.47248,-0.0393 0.0525,0.0131 0.10505,0.0196 0.15756,0.0196 0.20741,0 0.34527,-0.0132 0.41353,-0.0395 0.0236,0.0131 0.0499,0.0198 0.0788,0.0198 h 0.0393 l 0.0395,-0.0198 v 0.0198 c 0.0157,0 0.0353,-0.007 0.0589,-0.0198 0.0709,0.0131 0.11038,0.0198 0.11826,0.0198 0.0341,0 0.0867,-0.007 0.15755,-0.0198 l 0.0393,0.0198 0.11808,-0.0198 h 0.39388 v 0.0395 h -0.45283 l -0.0395,0.0197 v -0.0197 l -0.0984,0.0197 h -0.0591 c -0.0525,0 -0.12462,-0.007 -0.21651,-0.0197 -0.0289,0.0236 -0.24554,0.0432 -0.64986,0.059 l -0.0393,-0.0197 c -0.0761,0.0131 -0.29281,0.0263 -0.64987,0.0395 -0.042,0.0394 -0.0748,0.059 -0.0984,0.059 v 0.0198 c 0,0.0263 0.013,0.0393 0.0393,0.0393 h 0.39389 c 0.0263,0 0.0395,0.0132 0.0395,0.0395 -0.0945,0.0131 -0.14706,0.0196 -0.15756,0.0196 v 0.0393 h 0.0984 c 0.16803,0 0.35173,-0.007 0.55126,-0.0197 l 0.0788,0.0197 0.0984,-0.0197 c 0.0998,0 0.42151,0.007 0.96498,0.0197 l 0.0393,0.0198 c -0.2888,0.61961 -0.51851,1.08027 -0.68917,1.38219 v 0.0395 l 0.0591,-0.0395 h 0.0196 c -0.19691,0.46996 -0.29528,0.72594 -0.29528,0.76795 h 0.0196 c 0.042,0 0.0813,-0.0721 0.11808,-0.21651 h 0.0591 c 0,0.16541 -0.0591,0.33606 -0.17721,0.51196 v 0.0196 h 0.0197 l 0.0395,-0.0196 c 0.12602,-0.24679 0.21135,-0.39117 0.25598,-0.43318 h 0.0197 c -0.0341,0.11552 -0.0867,0.22694 -0.15755,0.33458 l 0.0393,0.0198 c 0.0105,0 0.05,-0.0525 0.11825,-0.15756 l 0.61039,-1.20113 c 0.30718,-0.69837 0.48577,-1.0476 0.53565,-1.0476 h 1.37833 c 0.11027,0 0.2744,0.007 0.49231,0.0197 v -0.0393 h -0.0395 v -0.0196 h 0.0788 c 0.16278,0 0.32691,0.0196 0.49231,0.059 v -0.0393 c -0.1444,-0.0446 -0.21668,-0.0841 -0.21668,-0.11826 v -0.0984 c 0,-0.021 0.0132,-0.034 0.0395,-0.0393 0,-0.0604 -0.25598,-0.0999 -0.76794,-0.11825 -0.81389,-0.0446 -1.22095,-0.0839 -1.22095,-0.11808 v -0.0197 l 0.55144,-1.14217 v -0.0197 l -0.0591,0.0395 0.1772,-0.41353 c -0.003,-0.0184 -0.0354,-0.0446 -0.0984,-0.0788 h -0.0197 c -0.10765,0.13128 -0.1667,0.19686 -0.17721,0.19686 0,-0.0971 0.0393,-0.16925 0.11808,-0.21651 v -0.0395 l -0.0196,-0.0393 z m -1.97311,3.70584 c -0.021,0.005 -0.0866,0.11684 -0.19685,0.33476 v 0.0393 c 0.13127,-0.17066 0.19685,-0.28877 0.19685,-0.35441 z m -3.13475,-3.52864 h 0.0196 c 0,0.0578 -0.0328,0.0971 -0.0984,0.11808 0,-0.0525 0.0263,-0.0918 0.0788,-0.11808 z m 5.24559,0 h 0.0198 c 0,0.0578 -0.033,0.0971 -0.0986,0.11808 0,-0.0525 0.0263,-0.0918 0.0788,-0.11808 z m -5.42279,0.2165 h 0.0393 v 0.0196 c 0,0.0263 -0.013,0.0395 -0.0393,0.0395 z m 5.24558,0 h 0.0395 v 0.0196 c 0,0.0263 -0.0132,0.0395 -0.0395,0.0395 z m -5.75755,0.72865 h 0.0196 v 0.0197 c -0.0788,0.14965 -0.11807,0.23497 -0.11807,0.25598 h -0.0395 v -0.0196 c 0.0919,-0.13915 0.1379,-0.22448 0.1379,-0.25598 z m 5.24559,0 h 0.0196 v 0.0197 c -0.0788,0.14965 -0.11808,0.23497 -0.11808,0.25598 h -0.0393 v -0.0196 c 0.0919,-0.13915 0.13773,-0.22448 0.13773,-0.25598 z m -11.2435,0.11421 h 0.48827 c 0.24942,0.0315 0.37424,0.0814 0.37424,0.14966 -0.24155,-0.0499 -0.52908,-0.0867 -0.86251,-0.11036 z m -2.09908,0.0393 h 0.0395 v 0.0354 c -0.0604,0.0998 -0.11028,0.14965 -0.14966,0.14965 h -0.0395 v -0.0354 c 0.063,-0.0998 0.1129,-0.14966 0.14966,-0.14966 z m 2.28804,0.22458 0.0749,0.0354 -0.0395,0.0747 -0.18493,-0.0354 c -0.0551,0.0735 -0.29277,0.14844 -0.71285,0.22458 l -0.0354,-0.0749 c 0.30981,-0.0998 0.60898,-0.17452 0.89778,-0.2244 z m 0.37423,0 h 0.0393 l 0.1851,0.0354 v 0.0393 h -0.0354 l -0.18896,-0.0393 z m 5.17874,0.19299 v 0.0196 c 0,0.0263 -0.0132,0.0393 -0.0395,0.0393 h -0.0196 c 0.0184,-0.0394 0.0381,-0.0589 0.0591,-0.0589 z m 5.24559,0 v 0.0196 c 0,0.0263 -0.0131,0.0393 -0.0393,0.0393 h -0.0197 c 0.0184,-0.0394 0.0379,-0.0589 0.059,-0.0589 z m -4.98961,0.23616 h 0.39371 v 0.0198 h -0.39371 z m 5.24559,0 h 0.39389 v 0.0198 h -0.39389 z m -3.4932,0.1379 0.13791,0.0197 -0.0197,0.0395 c -0.0473,-0.0131 -0.11954,-0.0198 -0.21668,-0.0198 v -0.0196 z m 5.24577,0 0.13772,0.0197 -0.0196,0.0395 c -0.0473,-0.0131 -0.11936,-0.0198 -0.2165,-0.0198 v -0.0196 z m -12.09426,1.56747 v 0.0393 c -0.11815,0.17328 -0.1929,0.25984 -0.2244,0.25984 0,-0.0866 0.0747,-0.18625 0.2244,-0.29914 z m -4.38712,0.48827 h 0.0395 c 0,0.0263 0.0118,0.0629 0.0354,0.11019 h -0.0354 c 0.0499,0.16015 0.0747,0.24812 0.0747,0.26387 v 0.0354 c -0.0551,0 -0.0932,-0.11159 -0.11422,-0.33476 z m -0.67337,0.44898 c 0.0761,0.0394 0.11422,0.0761 0.11422,0.11018 v 0.11422 h -0.0395 c -0.042,0 -0.0669,-0.0249 -0.0747,-0.0747 z m 4.68643,0.29932 v 0.0393 c 0,0.0446 -0.12605,0.15622 -0.37809,0.33475 v -0.0747 z m -4.46203,0.63793 h 0.0395 c 0.0735,0.0394 0.11018,0.0761 0.11018,0.11018 h -0.11018 c 0,-0.0263 -0.0132,-0.0629 -0.0395,-0.11018 z"
       style="font-style:normal;font-variant:normal;font-weight:bold;font-stretch:normal;font-size:medium;line-height:1.25;font-family:'True Lies';-inkscape-font-specification:'True Lies Bold';letter-spacing:0px;word-spacing:0px;fill:#181f2a;fill-opacity:1;stroke:none;stroke-width:0.08401473" />
    <path
       id="path980"
       d="m 128.28685,140.24908 -0.0953,0.0454 c -1.80961,0.0636 -2.90812,0.0953 -3.29546,0.0953 -0.16644,0 -0.30561,0.0304 -0.41757,0.0909 l -0.0954,-0.0454 c -0.0817,0 -0.20569,0.0771 -0.37213,0.23142 -0.34195,0.40247 -0.57356,0.60372 -0.69461,0.60372 0,0.19367 -0.4175,0.70515 -1.25271,1.53431 -0.4872,0.72324 -1.10766,1.38889 -1.86116,1.99714 l -0.36757,0.60372 0.0454,0.0909 c 0.3359,-0.0938 0.53715,-0.14071 0.60372,-0.14071 h 0.23142 c 0,0.0938 0.0302,0.14071 0.0907,0.14071 h 0.0954 c 0.0756,-0.0605 0.13756,-0.0909 0.18598,-0.0909 0,-0.1967 0.52665,-0.33587 1.57974,-0.41757 -0.0212,0.0908 -0.14534,0.13615 -0.3723,0.13615 h -0.0953 v 0.0954 h 0.05 l 0.0907,-0.05 c 0,0.0333 0.0152,0.05 0.0454,0.05 0.62943,-0.0938 1.01675,-0.14071 1.162,-0.14071 0.71114,0 1.06673,0.23144 1.06673,0.69443 v 0.0953 c 0,0.15433 -0.0304,0.23159 -0.0909,0.23159 0,0.38735 -0.44939,0.74277 -1.34815,1.06656 -0.71114,0.16341 -1.06656,0.27239 -1.06656,0.32686 v 0.0454 c 0.10592,-0.0605 0.33735,-0.10588 0.69443,-0.13614 h 0.0953 v 0.0453 h -0.0453 c -0.22696,0.1846 -0.96987,0.4162 -2.22873,0.69461 -0.49629,0 -0.74444,0.0771 -0.74444,0.23141 -0.91691,0.27841 -1.73708,0.41775 -2.46032,0.41775 h -0.0498 c -0.0908,-0.0484 -0.13633,-0.094 -0.13633,-0.13633 -0.0545,0 -0.0862,0.0304 -0.0953,0.0909 v 0.0454 c 0,0.0635 0.0317,0.0953 0.0953,0.0953 h 0.3223 c 0.43879,0 0.98046,-0.0773 1.62502,-0.2316 h 0.32686 l 0.0909,-0.0453 c 0,0.0303 0.0165,0.0453 0.0498,0.0453 0,0.0908 -0.0469,0.13633 -0.14071,0.13633 -0.60523,0.10289 -1.03791,0.19669 -1.29815,0.28142 -0.0545,-0.0303 -0.11655,-0.0454 -0.18615,-0.0454 h -0.0953 l 0.0454,0.23142 c -0.42063,0.0908 -0.68396,0.13615 -0.78988,0.13615 h -0.0909 v 0.0954 c 0.19973,0 0.41615,0.0302 0.64916,0.0907 0.0636,0 0.0953,-0.0302 0.0953,-0.0907 v -0.0454 h -0.14071 c 0,-0.0545 0.0304,-0.0862 0.0909,-0.0953 h 0.42213 v 0.0953 h -0.28142 v 0.0907 c 0.22393,0.0303 0.50227,0.0454 0.83514,0.0454 v 0.05 c -0.43576,0.0908 -0.71409,0.13615 -0.83514,0.13615 h -0.0909 v 0.0953 h 0.0454 c 0.53865,0 1.85495,-0.32524 3.94902,-0.97585 1.24978,-0.29354 2.27121,-0.74294 3.06405,-1.34816 0.7414,-0.75047 1.112,-1.39958 1.112,-1.94731 v -0.32686 l -0.0453,-0.0953 c 0.0303,0 0.0453,-0.0152 0.0453,-0.0454 v -0.18615 c -0.0212,-0.30867 -0.11345,-0.46284 -0.27686,-0.46284 -0.13617,-0.2784 -0.72474,-0.46465 -1.76572,-0.55846 0,0.0303 -0.0152,0.0455 -0.0454,0.0455 v -0.0455 c -0.32985,0 -0.76407,-0.015 -1.30272,-0.0453 h -0.0453 c 0.57496,-0.63548 1.24062,-1.34821 1.99715,-2.13803 0,-0.0817 1.17713,-0.17397 3.53144,-0.27686 h 0.0454 v -0.0909 c -0.0938,0 -0.14071,-0.0317 -0.14071,-0.0953 h 0.46757 c 0.49326,-0.0514 0.73987,-0.14371 0.73987,-0.27686 0,-0.0635 -0.0773,-0.0953 -0.23159,-0.0953 -0.1392,0 -0.34045,0.015 -0.60372,0.0453 -0.12407,-0.0303 -0.23288,-0.0453 -0.32669,-0.0453 v -0.0454 c 0.10894,0 0.43418,-0.0152 0.97585,-0.0454 l 0.18615,0.0454 c 0,-0.0303 0.015,-0.0454 0.0453,-0.0454 v 0.0454 c 0.0393,0 0.16351,-0.0469 0.37231,-0.14071 0.12407,-0.15433 0.27995,-0.2466 0.46757,-0.27686 l -0.05,-0.0954 c -0.10591,0 -0.42961,-0.015 -0.97129,-0.0453 -0.0333,0 -0.0802,0.015 -0.14071,0.0453 -0.27235,-0.0303 -0.48878,-0.0605 -0.64916,-0.0907 z m -4.27587,1.62501 v 0.0454 l -0.0454,0.0953 -1.67046,1.85661 h -0.14071 c 0,-0.12407 0.61893,-0.7899 1.85661,-1.99732 z m -1.20745,0.83532 h 0.05 v 0.0453 c -0.39642,0.45695 -0.75355,0.84426 -1.07129,1.162 h -0.0909 v -0.0453 z m -1.29815,1.43886 h 0.0453 c 0,0.0635 -0.0302,0.0953 -0.0907,0.0953 h -0.05 c 0,-0.0514 0.0319,-0.0832 0.0954,-0.0953 z m 2.04258,0.0498 h 0.78988 v 0.0454 c -0.10289,0 -0.18015,0.0152 -0.2316,0.0454 l -0.0953,-0.0454 c -0.0454,0 -0.61741,0.0469 -1.71589,0.14071 v -0.0498 c 0.36616,-0.0908 0.78384,-0.13632 1.25288,-0.13632 z m 1.81117,0.18615 c 0.30261,0.14223 0.48868,0.28139 0.55828,0.41757 v 0.0909 c -0.0333,0 -0.0802,-0.0152 -0.14071,-0.0454 -0.0212,-0.12407 -0.20725,-0.24806 -0.55828,-0.37213 -0.0696,0 -0.13168,0.015 -0.18615,0.0453 -0.12105,-0.0303 -0.22849,-0.0453 -0.3223,-0.0453 v -0.0454 c 0.28445,0 0.50088,-0.0152 0.64916,-0.0454 z m 5.2019,0.16334 c -0.35103,0 -1.13948,0.13627 -2.36506,0.40862 -0.8231,0.11197 -1.23464,0.18906 -1.23464,0.23142 v 0.0274 c 0.10289,0 0.1544,0.0333 0.1544,0.0998 l -0.05,0.0772 v 0.0272 c 0.0696,0 0.17262,0.0605 0.30879,0.18159 -0.0363,0.0847 -0.1059,0.12703 -0.20878,0.12703 v 0.0772 l 0.25861,-0.0272 v 0.077 c -0.0272,0 -0.062,0.0182 -0.10439,0.0546 l 0.0272,0.05 2.64648,-0.49038 h 0.0272 v -0.0498 c -0.0545,0 -0.30262,0.0423 -0.74444,0.12703 h -0.0272 v -0.0226 c 0.69298,-0.15434 1.24965,-0.25718 1.67028,-0.30862 v -0.0546 c -0.15433,0 -0.23142,-0.068 -0.23142,-0.20423 l 0.18159,-0.0226 h 0.0498 v -0.0546 h -0.54003 v -0.0226 c 0.23907,-0.0182 0.36766,-0.0364 0.38581,-0.0546 l -0.0272,-0.0498 c -0.5447,0.0847 -1.42695,0.25562 -2.64648,0.51284 h -0.10439 v -0.0272 c 1.14085,-0.25419 2.04118,-0.43276 2.70087,-0.53564 h 0.05 v -0.0544 c -0.11802,0 -0.17703,-0.0333 -0.17703,-0.0998 z m 4.13973,0 c -0.35103,0 -1.13948,0.13627 -2.36506,0.40862 -0.8231,0.11197 -1.23464,0.18906 -1.23464,0.23142 v 0.0274 c 0.10289,0 0.1544,0.0333 0.1544,0.0998 l -0.05,0.0772 v 0.0272 c 0.0696,0 0.17262,0.0605 0.30879,0.18159 -0.0363,0.0847 -0.1059,0.12703 -0.20878,0.12703 v 0.0772 l 0.25861,-0.0272 v 0.077 c -0.0272,0 -0.062,0.0182 -0.10439,0.0546 l 0.0272,0.05 2.64648,-0.49038 h 0.0272 v -0.0498 c -0.0545,0 -0.30263,0.0423 -0.74444,0.12703 h -0.0272 v -0.0226 c 0.69298,-0.15434 1.24965,-0.25718 1.67028,-0.30862 v -0.0546 c -0.15433,0 -0.23141,-0.068 -0.23141,-0.20423 l 0.18159,-0.0226 h 0.0498 v -0.0546 h -0.54004 v -0.0226 c 0.23907,-0.0182 0.36766,-0.0364 0.38581,-0.0546 l -0.0272,-0.0498 c -0.5447,0.0847 -1.42695,0.25562 -2.64648,0.51284 h -0.10439 v -0.0272 c 1.14085,-0.25419 2.04118,-0.43276 2.70087,-0.53564 h 0.05 v -0.0544 c -0.11802,0 -0.17703,-0.0333 -0.17703,-0.0998 z m -9.71393,0.0683 c 0.0545,0.0303 0.11655,0.0453 0.18615,0.0453 v 0.0909 l -0.18615,-0.0454 z m 4.49378,0.16334 h 0.05 v 0.0226 c -0.0182,0 -0.0439,0.009 -0.0772,0.0274 h -0.12702 v -0.0274 z m 4.13973,0 h 0.05 v 0.0226 c -0.0182,0 -0.0439,0.009 -0.0772,0.0274 h -0.12719 v -0.0274 z m -4.42115,0.0772 h 0.0226 v 0.0226 c -0.40247,0.0847 -0.6339,0.12703 -0.69443,0.12703 v -0.0226 c 0.2663,-0.0696 0.49023,-0.11189 0.6718,-0.12703 z m 4.13973,0 h 0.0226 v 0.0226 c -0.40247,0.0847 -0.6339,0.12703 -0.69443,0.12703 v -0.0226 c 0.2663,-0.0696 0.49023,-0.11189 0.6718,-0.12703 z m -8.1205,0.0363 h 0.14071 c 0.15433,0.0787 0.23142,0.20267 0.23142,0.37213 v 0.0454 c -0.13618,-0.0424 -0.26017,-0.16653 -0.37213,-0.3723 z m 5.05663,0.11352 h 0.0544 c 0,0.0363 -0.0181,0.0544 -0.0544,0.0544 h -0.0772 v -0.0272 c 0.0182,0 0.0439,-0.009 0.0772,-0.0272 z m 4.13973,0 h 0.0544 c 0,0.0363 -0.0181,0.0544 -0.0544,0.0544 h -0.0772 v -0.0272 c 0.0182,0 0.0439,-0.009 0.0772,-0.0272 z m -4.47116,0.077 v 0.0546 l -0.33598,0.0498 h -0.0226 v -0.0272 z m 4.13973,0 v 0.0546 l -0.33598,0.0498 h -0.0226 v -0.0272 z m -4.67994,0.0274 h 0.1044 v 0.0272 c -0.0424,0 -0.18,0.0258 -0.41301,0.0772 h -0.05 v -0.0274 c 0.20275,-0.0514 0.32231,-0.077 0.35862,-0.077 z m 4.13974,0 h 0.10439 v 0.0272 c -0.0424,0 -0.18,0.0258 -0.41301,0.0772 h -0.05 v -0.0274 c 0.20275,-0.0514 0.32231,-0.077 0.35862,-0.077 z m -3.29091,0.10439 h 0.0228 c 0,0.0333 -0.4025,0.11788 -1.20744,0.25405 h -0.0228 v -0.0226 z m 4.13973,0 h 0.0228 c 0,0.0333 -0.4025,0.11788 -1.20744,0.25405 h -0.0228 v -0.0226 z m -6.45461,0.0498 h 0.0272 v 0.0272 c -0.0182,0 -0.0439,0.008 -0.0772,0.0228 h -0.15422 v -0.0228 c 0.0424,0 0.11041,-0.009 0.20422,-0.0272 z m 0.6446,0 h 0.0998 v 0.0272 c -0.0424,0 -0.13617,0.0167 -0.28142,0.05 h -0.0274 c 0,-0.0393 0.0698,-0.0651 0.20896,-0.0772 z m 3.49513,0 h 0.0272 v 0.0272 c -0.0182,0 -0.0439,0.008 -0.0772,0.0228 h -0.15422 v -0.0228 c 0.0424,0 0.11041,-0.009 0.20422,-0.0272 z m 0.64443,0 h 0.1 v 0.0272 c -0.0424,0 -0.13617,0.0167 -0.28142,0.05 h -0.0274 c 0,-0.0393 0.0696,-0.0651 0.20879,-0.0772 z m -8.01155,0.0454 h 0.0454 c 0.0514,0 0.0983,0.0938 0.14071,0.28142 l -0.0954,0.0454 z m 3.58601,0.005 h 0.0272 l -0.0272,0.0544 h -0.0772 v -0.0272 c 0.0182,0 0.0439,-0.009 0.0772,-0.0272 z m 4.13973,0 h 0.0272 l -0.0272,0.0544 h -0.0772 v -0.0272 c 0.0182,0 0.0439,-0.009 0.0772,-0.0272 z m -3.64953,0.28598 h 0.0772 v 0.0226 c -0.0605,0.0181 -0.0953,0.0272 -0.10439,0.0272 h -0.0772 v -0.0272 z m 4.13973,0 h 0.0772 v 0.0226 c -0.0605,0.0181 -0.0953,0.0272 -0.10439,0.0272 h -0.0772 v -0.0272 z m -4.88416,0.12703 h 0.0998 v 0.0272 l -0.15439,0.0228 h -0.0226 v -0.0228 c 0.0181,0 0.0439,-0.009 0.0772,-0.0272 z m 4.13973,0 h 0.0998 v 0.0272 l -0.15439,0.0228 h -0.0226 v -0.0228 c 0.0182,0 0.0439,-0.009 0.0772,-0.0272 z m -4.26675,0.0272 h 0.0226 v 0.0228 c -0.1271,0.0363 -0.20436,0.0544 -0.2316,0.0544 h -0.077 v -0.0272 c 0.16644,-0.0333 0.26178,-0.05 0.28599,-0.05 z m 4.13955,0 h 0.0228 v 0.0228 c -0.1271,0.0363 -0.20436,0.0544 -0.23159,0.0544 h -0.0772 v -0.0272 h 1.8e-4 c 0.16643,-0.0333 0.26159,-0.05 0.2858,-0.05 z m -9.99062,2.66912 h 0.13615 v 0.0454 l -0.60372,0.18597 h -0.18615 v -0.0453 c 0.34195,-0.0636 0.55991,-0.12563 0.65372,-0.18615 z m -2.22873,0.13615 c 0.0303,0 0.0756,0.0167 0.13615,0.05 0.0605,-0.0333 0.10742,-0.05 0.14071,-0.05 h 0.27686 v 0.05 c -0.30262,0.0605 -0.47197,0.0907 -0.50828,0.0907 l -0.0954,-0.0455 z m 0.46301,0.32686 h 0.23142 v 0.0907 c -0.16342,0 -0.45693,0.0469 -0.88058,0.14071 h -0.18616 v -0.0453 z m -2.8779,0.93058 v 0.0907 h 0.27686 v -0.0907 z"
       style="font-style:normal;font-variant:normal;font-weight:bold;font-stretch:normal;font-size:medium;line-height:1.25;font-family:'True Lies';-inkscape-font-specification:'True Lies Bold';letter-spacing:0px;word-spacing:0px;fill:#181f2a;fill-opacity:1;stroke:none;stroke-width:0.09683557" />
    <flowRoot
       transform="matrix(0.33951546,0,0,0.33951546,76.128357,90.327739)"
       style="font-style:normal;font-variant:normal;font-weight:bold;font-stretch:normal;font-size:96px;line-height:1.25;font-family:'True Lies';-inkscape-font-specification:'True Lies Bold';letter-spacing:0px;word-spacing:0px;fill:#000000;fill-opacity:1;stroke:none"
       id="flowRoot849"
       xml:space="preserve"><flowRegion
         id="flowRegion851"><rect
           y="1011.4029"
           x="-448.50772"
           height="301.02545"
           width="373.75644"
           id="rect853" /></flowRegion><flowPara
         id="flowPara855" /></flowRoot>    <text
       id="text867"
       y="169.38571"
       x="37.65369"
       style="font-style:normal;font-variant:normal;font-weight:bold;font-stretch:normal;font-size:8.62369251px;line-height:1.25;font-family:'True Lies';-inkscape-font-specification:'True Lies Bold';letter-spacing:0px;word-spacing:0px;fill:#000000;fill-opacity:1;stroke:none;stroke-width:0.08983013"
       xml:space="preserve"><tspan
         style="stroke-width:0.08983013"
         y="177.16995"
         x="37.65369"
         id="tspan865" /></text>
    <g
       aria-label="0"
       transform="matrix(0.70592262,-0.38103661,0.70592262,0.38103661,108.99556,48.163149)"
       style="font-style:normal;font-variant:normal;font-weight:bold;font-stretch:normal;font-size:32.32773972px;line-height:1.25;font-family:'True Lies';-inkscape-font-specification:'True Lies Bold';letter-spacing:0px;word-spacing:0px;fill:#181f2a;fill-opacity:1;stroke:none;stroke-width:0.33674729"
       id="text875" />
    <g
       transform="matrix(0.33951546,0,0,0.33951546,76.128357,90.327739)"
       id="g903">
      <path
         style="opacity:1;fill:#181f2a;fill-opacity:1;stroke:none;stroke-width:6.4158349;stroke-linecap:butt;stroke-linejoin:round;stroke-miterlimit:4;stroke-dasharray:none;stroke-dashoffset:0;stroke-opacity:1;paint-order:normal"
         d="m 156.93667,120.47223 c -1.04752,0.007 -2.25824,0.11048 -3.63233,0.30954 l -0.11679,0.0543 c -0.13233,0.0614 -0.13701,0.1426 -0.0145,0.24392 -0.22866,0.0271 -0.38614,0.0604 -0.4718,0.10025 l -0.10904,-0.0677 0.23358,-0.10852 -0.21911,-0.13591 c -0.17907,0.0832 -0.85909,0.63638 -2.0407,1.65985 l -0.34314,0.0408 -0.14314,0.30386 -1.0511,0.48834 -0.10955,-0.0682 0.23358,-0.10852 -0.2186,-0.13539 c -0.90324,0.79925 -1.23447,1.27336 -0.99373,1.42265 -1.42276,1.7605 -2.04559,3.2445 -1.86862,4.45192 -0.8284,0.93856 -0.91083,1.61351 -0.24702,2.02521 -0.13232,0.0615 -0.28341,0.0528 -0.45268,-0.0269 0.002,1.35209 0.20434,2.45277 0.6072,3.30213 l 0.21911,0.13539 c -0.39533,-1.3513 -0.53381,-2.20103 -0.41445,-2.5492 l 0.10955,0.0682 c 0.0437,0.0272 0.25728,0.88125 0.64027,2.56264 l -0.11678,0.0543 -0.21859,-0.13591 c -0.11679,0.0542 -0.0882,0.20315 0.0863,0.44648 0.20964,0.0372 0.39861,0.10779 0.56638,0.21188 0.5164,0.47224 0.68495,0.74984 0.50591,0.83302 l -0.11679,0.0543 -0.10232,-0.19017 -0.32814,-0.2036 c 0.37895,0.99496 2.10012,2.82681 5.16299,5.49475 l 0.87488,0.5426 c 0.8462,0.52478 1.66359,0.90513 2.45153,1.1405 1.91198,0.54408 3.86814,0.35145 5.86889,-0.57774 2.00854,-0.93281 3.62191,-2.39809 4.8395,-4.3956 0.60723,-0.28201 1.11953,-1.87715 1.53686,-4.78472 -0.0755,-0.75611 -0.008,-1.18242 0.20205,-1.28002 0.0132,-1.09796 -0.31558,-2.61925 -0.98547,-4.56303 -0.42008,-1.44264 -1.88085,-3.19689 -4.38216,-5.26325 -0.88756,-0.46602 -1.40905,-0.66298 -1.56476,-0.59066 -0.67109,-0.41621 -1.63244,-0.66201 -2.88406,-0.73742 -0.3129,-0.0188 -0.64405,-0.0267 -0.99322,-0.0243 z m -10.12703,15.03888 c 0.15569,-0.0723 0.16037,-0.15345 0.0145,-0.24392 l -0.10903,-0.0677 -0.23358,0.10852 z m 19.61431,-6.59288 0.10904,0.0677 c -0.0173,0.41967 0.0394,0.67048 0.17053,0.7519 l -0.11679,0.0542 -0.10955,-0.0682 c -0.1897,-0.11758 -0.24611,-0.36792 -0.17002,-0.75137 z m -20.73104,2.32905 c 0.0535,0.11761 0.164,0.22823 0.33177,0.33228 l -0.23358,0.10852 -0.12041,-0.0749 -0.0946,-0.31161 z m 18.61127,0.44752 0.21859,0.13539 c -0.27493,0.16725 -0.32085,0.30757 -0.13849,0.42065 l -0.23358,0.10852 -0.10955,-0.0682 0.11679,-0.0543 c 0.1022,-0.18989 0.0732,-0.33454 -0.0873,-0.43409 z m 2.18436,1.60766 0.10956,0.0682 c 0.10937,0.19447 0.10539,0.31886 -0.0114,0.3731 l -0.11627,0.0537 -0.12092,-0.0744 c -0.0943,-0.19357 -0.0868,-0.31576 0.0222,-0.36638 z m -15.87965,1.8805 c 0.40402,0.45323 0.54008,0.71007 0.40773,0.77153 -0.124,-0.0769 -0.33742,-0.29806 -0.64079,-0.66352 z m -1.17925,0.54777 c 0.59174,0.6034 0.80226,0.94469 0.63097,1.02423 -0.55438,-0.34383 -0.76489,-0.68512 -0.63097,-1.02423 z m 2.01745,0.61753 c 0.32812,0.45683 0.61602,0.76241 0.86402,0.91623 l -0.11678,0.0543 -0.339,-0.21032 c -0.0511,-0.0316 -0.30163,-0.27153 -0.75138,-0.71934 z m 12.45195,0.18656 0.1204,0.0749 c 0.21883,0.13573 -0.16415,0.70893 -1.14825,1.71979 l -0.11678,0.0543 -0.10904,-0.0682 c 0.6162,-0.68174 1.03403,-1.27526 1.25367,-1.78077 z m -2.74247,1.99729 0.10955,0.0682 c -0.52651,0.32365 -0.84677,0.55115 -0.96066,0.68317 l -0.3359,-0.0811 1.05885,-0.61029 z m -7.45587,0.35347 0.65628,0.40721 -0.11678,0.0543 -0.65629,-0.40721 z m 9.54566,0.94309 0.10956,0.0677 c -0.35032,0.16271 -0.63165,0.37264 -0.84388,0.62942 l -0.33538,-0.0816 c -0.2176,0.34632 -0.41984,0.56279 -0.60668,0.64957 -0.55274,0.25671 -1.29506,0.51843 -2.22674,0.78497 l -0.10955,-0.0677 c 0.91576,-0.50441 1.78709,-1.02752 2.61431,-1.56993 0.72978,-0.1807 1.19594,-0.31839 1.39836,-0.41238 z m -4.0876,0.17777 c 0.0315,0.003 0.0547,0.008 0.0692,0.0155 l -0.23357,0.10852 c -0.38925,0.18078 -0.9258,0.23196 -1.60972,0.154 l -0.10956,-0.0677 c 1.03609,-0.16273 1.66398,-0.23294 1.88361,-0.21032 z m -4.9506,1.75286 c 0.11671,0.0725 0.4864,0.21737 1.10897,0.4346 l 0.12041,0.0744 -0.23358,0.10852 -0.67438,-0.29197 -0.43821,-0.27131 z m 1.92701,0.4222 c 0.0924,0.005 0.18194,0.0101 0.26769,0.0155 0.60017,0.0392 1.03608,0.10702 1.30844,0.20205 l -0.23357,0.10852 c -0.13234,0.0615 -0.5067,-0.002 -1.12345,-0.19017 z m 1.91099,0.36173 c 0.0772,0.006 0.15389,0.0326 0.23048,0.0801 l 0.10956,0.0677 c -0.35025,0.036 -0.57995,0.0203 -0.68937,-0.0475 l 0.11679,-0.0543 c 0.0778,-0.0362 0.15533,-0.0515 0.23254,-0.046 z"
         id="path877-0" />
      <path
         style="font-style:normal;font-variant:normal;font-weight:bold;font-stretch:normal;font-size:medium;line-height:1.25;font-family:'True Lies';-inkscape-font-specification:'True Lies Bold';letter-spacing:0px;word-spacing:0px;fill:#fff205;fill-opacity:1;stroke:none;stroke-width:0.17795782"
         d="m 157.41798,123.73427 c -0.11373,0.19535 -0.20156,0.32032 -0.26323,0.37466 l -0.30229,0.1235 c -0.10665,-0.0419 -0.24527,-0.1442 -0.4154,-0.30696 -0.0639,-0.0252 -0.12703,-0.0174 -0.1892,0.0238 l -0.0155,0.0858 -0.25381,-0.001 c -0.17132,0.15093 -0.1716,0.7702 -0.002,1.85777 0.0594,1.04869 0.11817,1.69326 0.17639,1.93425 l 0.1434,3.58427 c -0.0324,1.28237 -0.0438,2.16379 -0.0391,2.71198 -0.78717,-1.52367 -1.3862,-2.62283 -1.78817,-3.27731 l -0.0855,-0.004 c -0.12038,-0.006 -0.19185,0.12716 -0.2141,0.39946 -0.26919,-0.28632 -0.68912,-0.55755 -1.25966,-0.81442 l -0.0855,-0.004 c -0.12012,-0.006 -0.18406,0.0373 -0.19188,0.12971 l -0.0118,0.13849 0.23834,0.3483 c -0.004,0.044 -0.0654,0.0634 -0.18582,0.0574 l -0.0168,0.20412 c 0.49086,0.76562 1.46858,2.58218 2.93271,5.4498 0.31461,0.97683 0.67269,1.65314 1.07451,2.02882 l 0.0855,0.004 c 0.22215,-0.0723 0.37911,-0.20158 0.47061,-0.38757 2.2586,-2.65935 3.98327,-4.93672 5.17464,-6.83214 l -0.35212,-0.016 0.32115,-0.66559 -0.095,-0.005 c -0.11374,-0.005 -0.17465,0.0383 -0.18246,0.13074 l -0.25449,-0.15141 -0.095,-0.005 c -0.60077,0.58134 -1.68257,1.91592 -3.24577,4.00337 l -0.095,-0.005 0.007,-0.0729 c 0.13255,-0.14009 0.20197,-0.24931 0.20803,-0.32711 0.98255,-1.20737 1.48028,-1.88635 1.49261,-2.03709 l 0.007,-0.0723 c 0.12117,-0.005 0.31489,-0.19782 0.58103,-0.57981 l 0.007,-0.0729 -0.0861,-0.004 c -0.0571,-0.003 -0.21822,0.14767 -0.48475,0.45217 l -0.0168,0.20463 c -0.63796,0.65253 -0.98832,0.97744 -1.05161,0.9741 -0.27605,0.34944 -0.51999,0.65241 -0.7426,0.9245 0.0589,-3.32301 0.0437,-5.73211 -0.0506,-7.16081 0.046,-1.16876 -0.0258,-1.89715 -0.21544,-2.18539 0.16788,-0.14792 0.11725,-0.5014 -0.15082,-1.0604 -0.075,-0.0292 -0.23434,-0.0619 -0.47936,-0.0971 z m -0.26323,3.57549 0.11986,0.047 0.0579,1.21388 -0.0417,0.0362 -0.11987,-0.047 c 0.0446,-0.0393 0.0492,-0.11816 0.0141,-0.23668 z m 0.13533,1.44074 c 0.10829,0.15597 0.1453,0.24886 0.11113,0.27906 l -0.0357,0.0315 -0.0639,-0.0248 c -0.0965,-0.11208 -0.12455,-0.18653 -0.0836,-0.22273 z m -4.00184,1.35703 -0.005,0.0656 c -0.008,0.0922 0.0492,0.14128 0.16965,0.14728 l 0.0161,-0.20412 z m 3.51911,3.60443 c 0.0763,0.0823 0.0975,0.13826 0.0633,0.16846 l -0.0559,-0.0217 c -0.0694,-0.0272 -0.0858,-0.0641 -0.0485,-0.11059 z m 0.0215,0.20515 c 0.11607,0.0794 0.12116,0.54206 0.0208,1.36426 -0.0474,-0.0933 -0.0898,-0.17533 -0.136,-0.26613 -0.0434,-0.61306 -0.0194,-0.97888 0.0802,-1.06661 z"
         id="path870" />
    </g>
  </g>
</svg>
